PathFileType	4	(X/Y/Z)	 s02c0302.trc
DataRate	CameraRate	NumFrames	NumMarkers	Units	OrigDataRate	OrigDataStartFrame	OrigNumFrames
200	200	5	51	mm	200	1751	2000
Frame#	Time	racr			lacr			c7			jug			rlel			rdr			llel			ldr			s2			lic			ric			lasi			rasi			rpsi			lpsi			rgt			lgt			rth1			rth2			rth3			rth4			rlfc			rmfc			rsh1			rsh2			rsh3			rsh4			rlmal			rmmal			rcal			rtoe			rmt5			rmt1			lth1			lth2			lth4			lth3			llfc			lmfc			lsh1			lsh2			lsh3			lsh4			llmal			lmmal			lcal			ltoe			lmt5			SBIKE			LBIKE			RBIKE			
		X1	Y1	Z1	X2	Y2	Z2	X3	Y3	Z3	X4	Y4	Z4	X5	Y5	Z5	X6	Y6	Z6	X7	Y7	Z7	X8	Y8	Z8	X9	Y9	Z9	X10	Y10	Z10	X11	Y11	Z11	X12	Y12	Z12	X13	Y13	Z13	X14	Y14	Z14	X15	Y15	Z15	X16	Y16	Z16	X17	Y17	Z17	X18	Y18	Z18	X19	Y19	Z19	X20	Y20	Z20	X21	Y21	Z21	X22	Y22	Z22	X23	Y23	Z23	X24	Y24	Z24	X25	Y25	Z25	X26	Y26	Z26	X27	Y27	Z27	X28	Y28	Z28	X29	Y29	Z29	X30	Y30	Z30	X31	Y31	Z31	X32	Y32	Z32	X33	Y33	Z33	X34	Y34	Z34	X35	Y35	Z35	X36	Y36	Z36	X37	Y37	Z37	X38	Y38	Z38	X39	Y39	Z39	X40	Y40	Z40	X41	Y41	Z41	X42	Y42	Z42	X43	Y43	Z43	X44	Y44	Z44	X45	Y45	Z45	X46	Y46	Z46	X47	Y47	Z47	X48	Y48	Z48	X49	Y49	Z49	X50	Y50	Z50	X51	Y51	Z51	
1751	8.7550	683.799827	1231.179819	-55.388638	786.363297	1193.101755	-387.696600	743.984242	1247.336993	-220.347400	661.098732	1133.274603	-226.393620	587.300473	981.025238	-11.995551	725.525755	851.090688	-101.143507	663.732061	1041.983642	-601.449139	734.162036	854.164329	-514.707420	219.524217	1196.646368	-358.171183	365.012655	1142.495954	-471.389281	312.129908	1192.689690	-182.721812	390.131963	1102.757662	-432.130013	362.525521	1162.423299	-210.756664	231.866822	1226.990363	-319.208580	260.459402	1220.979313	-400.868349	282.713311	1128.917110	-146.111666	280.755107	1061.636859	-496.770740	369.454817	1093.670136	-136.059942	453.061275	1065.564627	-135.830804	511.604829	1012.350120	-103.424570	470.139617	1085.402533	-163.160358	617.760257	905.531272	-126.902744	613.211831	882.454769	-241.471317	571.905954	805.808417	-113.185779	529.179533	729.978877	-129.370698	454.497694	684.663215	-127.561073	540.678016	721.720844	-167.293956	360.316467	597.754513	-134.991829	375.402193	615.208166	-214.425895	272.018701	594.540101	-175.175475	511.545836	440.152161	-191.114315	412.644489	479.969106	-123.737646	438.676514	480.858434	-233.219849	334.334446	934.733057	-514.105253	367.678906	854.020732	-514.404007	401.032030	858.463410	-499.901586	354.210122	766.153431	-516.770649	366.974511	668.398295	-495.792793	364.515171	636.523282	-396.835661	321.610695	577.556973	-519.464308	307.810033	493.320035	-506.090059	250.070738	423.316175	-507.307337	327.884003	486.996046	-470.858905	201.053178	330.668838	-494.017660	214.309704	324.697710	-417.754694	128.143833	339.378416	-452.954453	308.797793	114.300756	-434.478852	223.993522	174.430820	-503.781480	-126.443558	872.454134	-307.988526	37.156009	86.742634	-514.213928	33.320474	83.788749	-114.217309	
1752	8.7600	682.492543	1227.449802	-52.524660	786.966345	1193.377585	-384.153739	743.633389	1245.851654	-216.961975	661.040665	1131.471113	-224.490932	583.690868	978.689048	-12.559020	724.714775	851.569446	-100.817095	667.335289	1043.573387	-600.300873	734.668258	853.796822	-514.591132	220.521484	1200.492660	-358.318992	365.876050	1146.472565	-471.997507	311.936210	1193.999349	-183.082042	390.978964	1105.904726	-433.499685	362.263789	1163.649235	-211.062511	233.473012	1230.060097	-319.347954	261.970016	1225.485909	-400.922217	282.180206	1130.300117	-147.513839	281.375461	1064.616563	-497.158475	368.326794	1093.805589	-136.033747	451.509560	1064.295475	-135.024412	508.947261	1009.901618	-102.547317	468.993208	1084.002969	-162.199046	614.811071	902.308797	-125.290877	609.739704	878.756915	-239.694687	568.703935	801.137697	-111.827709	526.192024	724.610660	-128.910385	453.738659	677.087133	-127.189523	539.441073	716.598737	-165.699889	361.615469	588.895470	-134.869831	376.147671	606.782559	-214.428149	273.594047	581.675218	-174.668204	519.880786	439.225847	-190.532697	419.206168	473.666437	-123.054886	445.236132	476.632668	-232.434271	337.257719	938.257690	-515.004767	372.081149	858.126042	-515.260674	405.283943	863.136155	-500.648309	360.223610	770.050454	-517.771455	373.680196	672.000230	-496.930660	371.937681	639.818480	-398.113039	326.684921	581.643424	-520.468510	310.507305	497.800943	-506.878519	251.069203	429.369489	-508.360035	330.354351	491.002422	-471.660965	198.840860	337.869660	-495.153213	212.485737	331.121097	-418.857497	126.523994	348.849238	-453.111732	299.258915	118.199730	-434.560139	216.062054	180.502754	-503.832543	-126.309991	872.552011	-307.652961	37.201783	86.865926	-514.261622	33.520624	83.545835	-114.273625	
1753	8.7650	681.251445	1223.904712	-49.865467	787.452307	1193.990838	-380.928801	743.176534	1244.623491	-213.892297	661.155422	1129.752469	-222.778303	580.478865	976.461651	-13.112701	723.796583	852.033465	-100.698712	670.439212	1044.595176	-598.738671	735.163993	853.481024	-514.488490	221.656143	1204.413183	-358.300612	366.760354	1150.321731	-472.593962	311.522374	1194.830264	-183.441325	391.811615	1108.949135	-434.409099	361.955860	1164.489566	-211.223723	234.320235	1233.499079	-319.983433	263.169605	1229.774381	-400.786722	282.926587	1131.090624	-150.198009	283.211648	1068.832639	-499.226882	367.085952	1093.110592	-135.767141	449.719857	1062.271813	-134.070632	505.921927	1006.803023	-101.736622	467.713267	1081.741055	-161.486134	612.402306	898.180180	-123.859469	605.702622	874.257579	-237.813204	564.714422	795.159666	-110.161118	524.030775	718.770335	-127.189383	452.391163	668.775935	-126.696779	536.769489	709.691143	-165.852207	362.379623	579.402089	-134.910117	376.477408	597.543162	-214.520803	274.737886	568.113574	-174.666206	527.592112	437.824672	-190.100492	425.167392	466.899702	-122.390027	451.027510	471.539953	-231.575228	340.683562	941.883820	-515.698203	377.010511	862.407575	-515.760502	410.074008	868.085055	-501.166788	367.101856	774.216848	-518.314215	380.833598	675.855071	-497.767584	379.675077	643.524627	-398.962034	332.262984	585.769608	-521.131777	313.688104	502.526459	-507.539815	252.393169	435.737074	-509.252015	333.136927	495.116248	-472.106858	196.741717	345.306333	-496.241950	213.815695	335.189000	-421.534326	125.003191	358.336966	-453.273740	290.075736	122.706553	-434.637345	208.562695	187.050583	-503.815480	-126.158006	872.679466	-307.283608	37.215575	86.995312	-514.252216	33.543810	83.569055	-114.228459	
1754	8.7700	680.103145	1220.470773	-47.436278	787.896259	1195.081625	-378.062115	742.065025	1243.100493	-211.557270	662.588147	1126.865916	-220.969097	577.331527	974.319113	-14.067269	722.959020	852.657827	-100.688255	673.419902	1045.806256	-597.149757	735.647598	853.214486	-514.406213	222.967812	1208.275734	-358.488652	367.700706	1154.083051	-472.799361	310.189229	1195.073370	-184.636136	392.669939	1111.996727	-435.394403	361.561480	1164.956980	-211.303923	235.706719	1237.256338	-320.391552	264.769633	1233.999831	-400.602219	281.599576	1131.455214	-151.127118	284.853292	1072.246532	-500.470195	365.481891	1091.522906	-136.014257	447.588487	1059.464926	-133.303265	502.411745	1003.083630	-100.721026	466.219759	1078.833369	-160.325962	605.272600	891.247232	-122.002183	601.124159	869.186144	-235.942345	559.918348	787.963715	-108.399780	520.556891	710.155560	-127.517293	450.781345	659.349171	-126.435032	534.497419	702.608312	-164.754065	363.007938	568.932206	-135.378016	376.654891	587.527157	-214.900782	276.013372	553.626613	-175.473249	534.543598	435.869384	-189.564578	430.534464	459.575920	-121.915119	456.534561	465.787773	-230.885898	344.588881	945.556874	-516.223596	382.366725	866.804181	-515.844176	415.281890	873.105092	-501.331610	374.284950	778.351982	-518.421310	388.461695	679.671028	-498.435388	387.352517	647.533433	-399.091710	338.302579	589.901586	-521.667401	317.113751	507.323007	-507.871026	253.943546	442.523872	-509.962503	336.022448	499.271722	-472.086516	194.665330	352.983495	-497.242585	211.348387	342.153658	-421.960498	123.169452	367.885755	-453.450282	281.354057	127.954556	-434.468478	201.435475	194.099217	-503.736988	-125.981187	872.831463	-306.889245	37.221544	87.228956	-514.171671	33.550631	83.545538	-114.163683	
1755	8.7750	679.044585	1217.425038	-45.306894	788.427114	1196.589710	-375.503396	741.940229	1242.379089	-209.006253	662.284919	1126.346458	-220.155517	574.422516	972.521656	-15.188451	722.057595	853.435231	-100.702779	676.314367	1046.856274	-595.601908	736.119099	852.992044	-514.349208	223.936778	1210.834795	-359.006131	368.620841	1157.732265	-473.100152	309.599913	1194.981443	-184.784727	393.578786	1114.922983	-436.309590	361.198179	1164.941522	-211.304496	237.201842	1240.578055	-320.757187	267.136437	1237.350833	-401.202534	279.863665	1131.359320	-151.826646	286.724712	1075.527804	-501.773320	363.807967	1089.468211	-136.069108	445.304187	1055.888710	-132.480309	498.580835	998.241746	-99.049751	464.538038	1075.159165	-159.178357	601.706069	884.582154	-121.222984	596.204197	863.055421	-233.515089	555.356796	779.856387	-107.343946	517.616383	701.368046	-126.951254	449.040664	648.974621	-126.606701	532.110898	694.790212	-163.671588	363.743578	557.788383	-136.100335	376.825419	576.703873	-215.637938	277.292322	539.049136	-176.151356	540.755135	432.792159	-188.583816	435.475851	451.516521	-121.690488	461.735176	459.284680	-230.299716	348.837706	949.157675	-516.452880	388.116098	871.107854	-515.567836	420.821684	878.115416	-501.152117	381.853801	782.613297	-518.453598	396.394119	683.589103	-498.711016	395.227921	651.326007	-399.216889	344.731268	594.104899	-521.878542	320.855363	512.416226	-508.210492	255.669788	449.488497	-510.442767	339.537325	504.394919	-472.705921	192.012817	361.196599	-498.032821	208.834753	349.656219	-422.192396	120.809724	377.425249	-453.514427	273.319085	134.163822	-434.349734	194.678109	201.683400	-503.759208	-125.823370	872.961605	-306.466735	37.226807	87.499692	-514.080703	33.562253	83.560177	-114.106451	
